<svg width="100" height="100" viewBox="0 0 100 100" fill="none" xmlns="http://www.w3.org/2000/svg">
<path d="M96.875 46.875H93.75V34.375C93.75 32.7174 93.0915 31.1277 91.9194 29.9556C90.7473 28.7835 89.1576 28.125 87.5 28.125H81.25V25C81.25 23.3424 80.5915 21.7527 79.4194 20.5806C78.2473 19.4085 76.6576 18.75 75 18.75H65.625C63.9674 18.75 62.3777 19.4085 61.2056 20.5806C60.0335 21.7527 59.375 23.3424 59.375 25V46.875H40.625V25C40.625 23.3424 39.9665 21.7527 38.7944 20.5806C37.6223 19.4085 36.0326 18.75 34.375 18.75H25C23.3424 18.75 21.7527 19.4085 20.5806 20.5806C19.4085 21.7527 18.75 23.3424 18.75 25V28.125H12.5C10.8424 28.125 9.25268 28.7835 8.08058 29.9556C6.90848 31.1277 6.25 32.7174 6.25 34.375V46.875H3.125C2.2962 46.875 1.50134 47.2042 0.915291 47.7903C0.32924 48.3763 0 49.1712 0 50C0 50.8288 0.32924 51.6237 0.915291 52.2097C1.50134 52.7958 2.2962 53.125 3.125 53.125H6.25V65.625C6.25 67.2826 6.90848 68.8723 8.08058 70.0444C9.25268 71.2165 10.8424 71.875 12.5 71.875H18.75V75C18.75 76.6576 19.4085 78.2473 20.5806 79.4194C21.7527 80.5915 23.3424 81.25 25 81.25H34.375C36.0326 81.25 37.6223 80.5915 38.7944 79.4194C39.9665 78.2473 40.625 76.6576 40.625 75V53.125H59.375V75C59.375 76.6576 60.0335 78.2473 61.2056 79.4194C62.3777 80.5915 63.9674 81.25 65.625 81.25H75C76.6576 81.25 78.2473 80.5915 79.4194 79.4194C80.5915 78.2473 81.25 76.6576 81.25 75V71.875H87.5C89.1576 71.875 90.7473 71.2165 91.9194 70.0444C93.0915 68.8723 93.75 67.2826 93.75 65.625V53.125H96.875C97.7038 53.125 98.4987 52.7958 99.0847 52.2097C99.6708 51.6237 100 50.8288 100 50C100 49.1712 99.6708 48.3763 99.0847 47.7903C98.4987 47.2042 97.7038 46.875 96.875 46.875ZM12.5 65.625V34.375H18.75V65.625H12.5ZM34.375 75H25V25H34.375V75ZM75 75H65.625V25H75V68.6797C75 68.7031 75 68.7266 75 68.75C75 68.7734 75 68.7969 75 68.8203V75ZM87.5 65.625H81.25V34.375H87.5V65.625Z" fill="white"/>
</svg>
