<svg width="100" height="100" viewBox="0 0 100 100" fill="none" xmlns="http://www.w3.org/2000/svg">
<path d="M50.0019 34.3751C46.9116 34.3751 43.8907 35.2915 41.3212 37.0084C38.7516 38.7253 36.7489 41.1656 35.5663 44.0207C34.3837 46.8758 34.0743 50.0174 34.6772 53.0484C35.2801 56.0793 36.7682 58.8634 38.9534 61.0486C41.1386 63.2338 43.9227 64.722 46.9537 65.3249C49.9846 65.9278 53.1263 65.6183 55.9814 64.4357C58.8365 63.2531 61.2768 61.2504 62.9937 58.6809C64.7106 56.1114 65.6269 53.0904 65.6269 50.0001C65.6269 45.8561 63.9807 41.8818 61.0505 38.9516C58.1202 36.0213 54.146 34.3751 50.0019 34.3751ZM50.0019 59.3751C48.1477 59.3751 46.3352 58.8253 44.7935 57.7951C43.2518 56.765 42.0501 55.3008 41.3406 53.5878C40.631 51.8747 40.4454 49.9897 40.8071 48.1711C41.1688 46.3526 42.0617 44.6821 43.3728 43.371C44.6839 42.0599 46.3544 41.167 48.173 40.8052C49.9916 40.4435 51.8765 40.6292 53.5896 41.3387C55.3027 42.0483 56.7668 43.2499 57.797 44.7916C58.8271 46.3333 59.3769 48.1459 59.3769 50.0001C59.3769 52.4865 58.3892 54.8711 56.6311 56.6292C54.8729 58.3874 52.4884 59.3751 50.0019 59.3751ZM78.7949 62.1642C77.4523 65.3383 75.5939 68.2685 73.2949 70.836C72.7382 71.4384 71.9671 71.7977 71.1478 71.8365C70.3285 71.8753 69.5268 71.5905 68.9157 71.0435C68.3046 70.4964 67.933 69.731 67.8812 68.9125C67.8293 68.0939 68.1014 67.2878 68.6387 66.6681C72.742 62.0866 75.0109 56.1524 75.0109 50.0021C75.0109 43.8517 72.742 37.9175 68.6387 33.336C68.3573 33.0316 68.1393 32.6742 67.9974 32.2847C67.8555 31.8952 67.7925 31.4813 67.8122 31.0672C67.8318 30.6531 67.9336 30.247 68.1117 29.8727C68.2897 29.4983 68.5405 29.1631 68.8494 28.8866C69.1583 28.6101 69.5191 28.3979 69.9108 28.2622C70.3026 28.1265 70.7174 28.0701 71.1311 28.0963C71.5448 28.1225 71.9492 28.2307 72.3207 28.4147C72.6922 28.5987 73.0234 28.8548 73.2949 29.1681C77.2408 33.5835 79.8523 39.0282 80.826 44.8692C81.7996 50.7102 81.0953 56.7076 78.7949 62.1642ZM26.9551 40.2696C25.1112 44.6344 24.5457 49.4332 25.3245 54.107C26.1032 58.7807 28.1941 63.137 31.3535 66.6681C31.8908 67.2878 32.1628 68.0939 32.111 68.9125C32.0592 69.731 31.6876 70.4964 31.0765 71.0435C30.4654 71.5905 29.6637 71.8753 28.8444 71.8365C28.0251 71.7977 27.2539 71.4384 26.6973 70.836C21.5667 65.1093 18.7297 57.6909 18.7297 50.0021C18.7297 42.3133 21.5667 34.8948 26.6973 29.1681C27.25 28.5491 28.0259 28.175 28.8545 28.1281C29.683 28.0812 30.4962 28.3654 31.1152 28.9181C31.7342 29.4708 32.1083 30.2468 32.1552 31.0753C32.2021 31.9038 31.9179 32.717 31.3652 33.336C29.5215 35.3872 28.0312 37.7302 26.9551 40.2696ZM96.8769 50.0001C96.8959 62.2725 92.0843 74.0594 83.4824 82.8126C83.1978 83.1169 82.8553 83.3612 82.4749 83.5311C82.0945 83.7011 81.684 83.7932 81.2675 83.8022C80.851 83.8112 80.4369 83.7368 80.0496 83.5834C79.6622 83.43 79.3094 83.2007 79.012 82.909C78.7146 82.6173 78.4785 82.2691 78.3176 81.8848C78.1567 81.5005 78.0742 81.0879 78.0751 80.6713C78.076 80.2547 78.1602 79.8425 78.3227 79.4589C78.4852 79.0753 78.7228 78.7281 79.0215 78.4376C86.4697 70.8492 90.6424 60.6409 90.6424 50.0079C90.6424 39.375 86.4697 29.1667 79.0215 21.5782C78.4392 20.9867 78.1159 20.1881 78.1225 19.3581C78.129 18.5281 78.4651 17.7347 79.0566 17.1525C79.6482 16.5702 80.4468 16.2468 81.2768 16.2534C82.1068 16.26 82.9002 16.596 83.4824 17.1876C92.0843 25.9408 96.8959 37.7277 96.8769 50.0001ZM20.9824 78.4298C21.2702 78.7227 21.4975 79.0694 21.6512 79.4502C21.805 79.8309 21.8823 80.2382 21.8787 80.6488C21.8751 81.0594 21.7906 81.4653 21.6301 81.8433C21.4696 82.2212 21.2363 82.5639 20.9434 82.8517C20.6504 83.1395 20.3037 83.3667 19.923 83.5205C19.5422 83.6743 19.1349 83.7516 18.7243 83.7479C18.3137 83.7443 17.9078 83.6598 17.5299 83.4994C17.1519 83.3389 16.8093 83.1055 16.5215 82.8126C7.92064 74.0566 3.10156 62.2737 3.10156 50.0001C3.10156 37.7265 7.92064 25.9436 16.5215 17.1876C16.8061 16.8833 17.1486 16.6391 17.529 16.4691C17.9094 16.2992 18.3199 16.207 18.7364 16.198C19.1529 16.189 19.567 16.2634 19.9543 16.4168C20.3417 16.5702 20.6944 16.7995 20.9919 17.0912C21.2893 17.3829 21.5254 17.7311 21.6863 18.1154C21.8472 18.4997 21.9296 18.9123 21.9288 19.3289C21.9279 19.7455 21.8437 20.1577 21.6812 20.5413C21.5187 20.9249 21.2811 21.2722 20.9824 21.5626C13.5342 29.151 9.36148 39.3593 9.36148 49.9923C9.36148 60.6252 13.5342 70.8335 20.9824 78.422V78.4298Z" fill="white"/>
</svg>
