<svg width="100" height="100" viewBox="0 0 100 100" fill="none" xmlns="http://www.w3.org/2000/svg">
<path d="M74.0859 25.9147C73.7957 25.6241 73.4511 25.3936 73.0717 25.2364C72.6923 25.0791 72.2857 24.9982 71.875 24.9982C71.4643 24.9982 71.0577 25.0791 70.6783 25.2364C70.2989 25.3936 69.9543 25.6241 69.6641 25.9147L58.082 37.5006H41.918L30.3359 25.9147C29.7496 25.3283 28.9543 24.9989 28.125 24.9989C27.2957 24.9989 26.5004 25.3283 25.9141 25.9147C25.3277 26.5011 24.9983 27.2963 24.9983 28.1256C24.9983 28.9549 25.3277 29.7502 25.9141 30.3365L37.5 41.9186V58.0826L25.9141 69.6647C25.3277 70.251 24.9983 71.0463 24.9983 71.8756C24.9983 72.7049 25.3277 73.5002 25.9141 74.0865C26.5004 74.6729 27.2957 75.0023 28.125 75.0023C28.9543 75.0023 29.7496 74.6729 30.3359 74.0865L41.918 62.5006H58.082L69.6641 74.0865C69.9544 74.3769 70.2991 74.6072 70.6784 74.7643C71.0578 74.9215 71.4644 75.0023 71.875 75.0023C72.2856 75.0023 72.6922 74.9215 73.0716 74.7643C73.4509 74.6072 73.7956 74.3769 74.0859 74.0865C74.3763 73.7962 74.6066 73.4515 74.7637 73.0722C74.9209 72.6928 75.0017 72.2862 75.0017 71.8756C75.0017 71.465 74.9209 71.0584 74.7637 70.6791C74.6066 70.2997 74.3763 69.955 74.0859 69.6647L62.5 58.0826V41.9186L74.0859 30.3365C74.3765 30.0463 74.607 29.7017 74.7643 29.3223C74.9215 28.9429 75.0025 28.5363 75.0025 28.1256C75.0025 27.7149 74.9215 27.3083 74.7643 26.9289C74.607 26.5496 74.3765 26.2049 74.0859 25.9147ZM43.75 43.7506H56.25V56.2506H43.75V43.7506ZM54.1055 23.9576C55.0741 21.2211 56.72 18.7745 58.8897 16.8461C61.0595 14.9176 63.6823 13.5701 66.5135 12.9293C69.3448 12.2884 72.2922 12.3751 75.0809 13.1812C77.8696 13.9873 80.4087 15.4867 82.4613 17.5393C84.514 19.5919 86.0133 22.131 86.8194 24.9197C87.6255 27.7084 87.7122 30.6558 87.0714 33.4871C86.4305 36.3183 85.083 38.9412 83.1545 41.1109C81.2261 43.2806 78.7795 44.9265 76.043 45.8951C75.7095 46.0216 75.3566 46.089 75 46.0944C74.2632 46.094 73.5502 45.8334 72.9869 45.3584C72.4237 44.8834 72.0463 44.2247 71.9216 43.4985C71.7968 42.7724 71.9326 42.0255 72.3051 41.3897C72.6775 40.754 73.2626 40.2703 73.957 40.024C75.6983 39.4075 77.255 38.36 78.482 36.9792C79.7091 35.5985 80.5664 33.9295 80.9741 32.1278C81.3818 30.3262 81.3266 28.4507 80.8136 26.6762C80.3006 24.9016 79.3465 23.286 78.0403 21.9798C76.7342 20.6737 75.1185 19.7196 73.344 19.2066C71.5695 18.6936 69.6939 18.6383 67.8923 19.046C66.0907 19.4537 64.4216 20.3111 63.0409 21.5381C61.6601 22.7651 60.6126 24.3219 59.9961 26.0631C59.8644 26.4566 59.6557 26.82 59.3821 27.132C59.1085 27.444 58.7755 27.6984 58.4025 27.8803C58.0295 28.0622 57.6241 28.168 57.2098 28.1915C56.7955 28.2151 56.3806 28.1558 55.9894 28.0173C55.5983 27.8788 55.2386 27.6638 54.9314 27.3848C54.6243 27.1057 54.3757 26.7683 54.2004 26.3923C54.025 26.0162 53.9263 25.6089 53.91 25.1943C53.8937 24.7796 53.9601 24.3659 54.1055 23.9772V23.9576ZM87.5 70.3131C87.502 74.3689 86.0696 78.2948 83.4562 81.3964C80.8428 84.498 77.2168 86.5754 73.2194 87.2614C69.222 87.9473 65.1108 87.1976 61.6129 85.1447C58.115 83.0918 55.4557 79.868 54.1055 76.0436C53.8455 75.2666 53.9011 74.4185 54.2603 73.6821C54.6195 72.9457 55.2535 72.3798 56.0259 72.1063C56.7982 71.8328 57.6471 71.8735 58.3897 72.2198C59.1323 72.5661 59.7092 73.1902 59.9961 73.9576C60.6126 75.6989 61.6601 77.2556 63.0409 78.4827C64.4216 79.7097 66.0907 80.567 67.8923 80.9747C69.6939 81.3824 71.5695 81.3272 73.344 80.8142C75.1185 80.3012 76.7342 79.3471 78.0403 78.0409C79.3465 76.7348 80.3006 75.1191 80.8136 73.3446C81.3266 71.5701 81.3818 69.6945 80.9741 67.8929C80.5664 66.0913 79.7091 64.4223 78.482 63.0415C77.255 61.6608 75.6983 60.6132 73.957 59.9967C73.1896 59.7098 72.5655 59.1329 72.2192 58.3903C71.8729 57.6477 71.8322 56.7988 72.1057 56.0265C72.3792 55.2541 72.9451 54.6201 73.6815 54.2609C74.4179 53.9017 75.266 53.8461 76.043 54.1061C79.3919 55.2946 82.291 57.4905 84.3423 60.3923C86.3936 63.294 87.4966 66.7595 87.5 70.3131ZM45.8945 76.0436C44.9259 78.7801 43.28 81.2267 41.1103 83.1551C38.9405 85.0836 36.3177 86.4311 33.4865 87.072C30.6552 87.7128 27.7078 87.6261 24.9191 86.82C22.1304 86.0139 19.5913 84.5146 17.5387 82.4619C15.486 80.4093 13.9867 77.8702 13.1806 75.0815C12.3745 72.2928 12.2878 69.3454 12.9287 66.5141C13.5695 63.6829 14.917 61.0601 16.8455 58.8904C18.7739 56.7206 21.2205 55.0747 23.957 54.1061C24.734 53.8461 25.5821 53.9017 26.3185 54.2609C27.0549 54.6201 27.6208 55.2541 27.8943 56.0265C28.1678 56.7988 28.1271 57.6477 27.7808 58.3903C27.4345 59.1329 26.8104 59.7098 26.043 59.9967C24.3017 60.6132 22.745 61.6608 21.518 63.0415C20.2909 64.4223 19.4336 66.0913 19.0259 67.8929C18.6182 69.6945 18.6734 71.5701 19.1864 73.3446C19.6994 75.1191 20.6535 76.7348 21.9597 78.0409C23.2658 79.3471 24.8815 80.3012 26.656 80.8142C28.4305 81.3272 30.3061 81.3824 32.1077 80.9747C33.9093 80.567 35.5784 79.7097 36.9591 78.4827C38.3399 77.2556 39.3874 75.6989 40.0039 73.9576C40.2909 73.1902 40.8677 72.5661 41.6103 72.2198C42.3529 71.8735 43.2018 71.8328 43.9741 72.1063C44.7465 72.3798 45.3805 72.9457 45.7397 73.6821C46.0989 74.4185 46.1545 75.2666 45.8945 76.0436ZM12.5 29.6881C12.498 25.6323 13.9304 21.7064 16.5438 18.6048C19.1572 15.5032 22.7832 13.4258 26.7806 12.7398C30.778 12.0539 34.8892 12.8036 38.3871 14.8565C41.885 16.9094 44.5443 20.1332 45.8945 23.9576C46.0399 24.3463 46.1063 24.7601 46.09 25.1747C46.0737 25.5894 45.975 25.9966 45.7996 26.3727C45.6243 26.7488 45.3757 27.0862 45.0686 27.3652C44.7614 27.6442 44.4017 27.8593 44.0106 27.9978C43.6194 28.1363 43.2045 28.1955 42.7902 28.172C42.3759 28.1485 41.9705 28.0427 41.5975 27.8608C41.2245 27.6788 40.8915 27.4245 40.6179 27.1125C40.3443 26.8005 40.1356 26.4371 40.0039 26.0436C39.3874 24.3023 38.3399 22.7456 36.9591 21.5186C35.5784 20.2915 33.9093 19.4342 32.1077 19.0265C30.3061 18.6188 28.4305 18.674 26.656 19.187C24.8815 19.7 23.2658 20.6541 21.9597 21.9603C20.6535 23.2664 19.6994 24.8821 19.1864 26.6566C18.6734 28.4311 18.6182 30.3067 19.0259 32.1083C19.4336 33.9099 20.2909 35.579 21.518 36.9597C22.745 38.3405 24.3017 39.388 26.043 40.0045C26.7519 40.2403 27.353 40.7222 27.7372 41.363C28.1213 42.0038 28.2632 42.761 28.1371 43.4974C28.011 44.2338 27.6252 44.9007 27.0497 45.3771C26.4742 45.8535 25.747 46.108 25 46.0944C24.6446 46.0953 24.2917 46.0345 23.957 45.9147C20.6049 44.725 17.7037 42.5262 15.6521 39.6205C13.6005 36.7149 12.4993 33.2451 12.5 29.6881Z" fill="white"/>
</svg>
