<svg width="100" height="100" viewBox="0 0 100 100" fill="none" xmlns="http://www.w3.org/2000/svg">
<path d="M84.375 21.875H68.75V18.75C68.75 16.2636 67.7623 13.879 66.0041 12.1209C64.246 10.3627 61.8614 9.375 59.375 9.375H40.625C38.1386 9.375 35.754 10.3627 33.9959 12.1209C32.2377 13.879 31.25 16.2636 31.25 18.75V21.875H15.625C13.9674 21.875 12.3777 22.5335 11.2056 23.7056C10.0335 24.8777 9.375 26.4674 9.375 28.125V78.125C9.375 79.7826 10.0335 81.3723 11.2056 82.5444C12.3777 83.7165 13.9674 84.375 15.625 84.375H84.375C86.0326 84.375 87.6223 83.7165 88.7944 82.5444C89.9665 81.3723 90.625 79.7826 90.625 78.125V28.125C90.625 26.4674 89.9665 24.8777 88.7944 23.7056C87.6223 22.5335 86.0326 21.875 84.375 21.875ZM37.5 18.75C37.5 17.9212 37.8292 17.1263 38.4153 16.5403C39.0013 15.9542 39.7962 15.625 40.625 15.625H59.375C60.2038 15.625 60.9987 15.9542 61.5847 16.5403C62.1708 17.1263 62.5 17.9212 62.5 18.75V21.875H37.5V18.75ZM84.375 78.125H15.625V28.125H84.375V78.125ZM62.5 53.125C62.5 53.9538 62.1708 54.7487 61.5847 55.3347C60.9987 55.9208 60.2038 56.25 59.375 56.25H53.125V62.5C53.125 63.3288 52.7958 64.1237 52.2097 64.7097C51.6237 65.2958 50.8288 65.625 50 65.625C49.1712 65.625 48.3763 65.2958 47.7903 64.7097C47.2042 64.1237 46.875 63.3288 46.875 62.5V56.25H40.625C39.7962 56.25 39.0013 55.9208 38.4153 55.3347C37.8292 54.7487 37.5 53.9538 37.5 53.125C37.5 52.2962 37.8292 51.5013 38.4153 50.9153C39.0013 50.3292 39.7962 50 40.625 50H46.875V43.75C46.875 42.9212 47.2042 42.1263 47.7903 41.5403C48.3763 40.9542 49.1712 40.625 50 40.625C50.8288 40.625 51.6237 40.9542 52.2097 41.5403C52.7958 42.1263 53.125 42.9212 53.125 43.75V50H59.375C60.2038 50 60.9987 50.3292 61.5847 50.9153C62.1708 51.5013 62.5 52.2962 62.5 53.125Z" fill="white"/>
</svg>
