<svg width="100" height="100" viewBox="0 0 100 100" fill="none" xmlns="http://www.w3.org/2000/svg">
<path d="M92.7066 41.4889L23.9878 16.0163L23.9253 15.9967C22.8192 15.6159 21.6284 15.5531 20.4884 15.8156C19.3484 16.0781 18.3049 16.6552 17.4766 17.4814C16.6484 18.3076 16.0687 19.3496 15.8034 20.489C15.5382 21.6284 15.598 22.8194 15.9761 23.9264C15.9809 23.9478 15.9874 23.9687 15.9956 23.9889L41.4878 92.7077C41.9065 93.9329 42.7006 94.9951 43.7574 95.7433C44.8141 96.4915 46.0798 96.8877 47.3746 96.8756H47.4917C48.8121 96.8655 50.0942 96.4315 51.1492 95.6375C52.2041 94.8434 52.9761 93.7315 53.3511 92.4655L53.3746 92.3873L61.9058 61.9186L92.3746 53.3874L92.4527 53.3639C93.7093 52.9772 94.812 52.2041 95.6038 51.1545C96.3957 50.1049 96.8364 48.8324 96.8632 47.5179C96.89 46.2034 96.5016 44.9139 95.7533 43.8328C95.0049 42.7518 93.9347 41.9344 92.6949 41.4967L92.7066 41.4889ZM58.5308 56.3678C58.0148 56.5127 57.5447 56.7878 57.1657 57.1668C56.7867 57.5458 56.5116 58.0159 56.3667 58.5319L47.3824 90.6256L47.3589 90.5592L21.8746 21.8756L90.5542 47.3522L90.6167 47.3756L58.5308 56.3678Z" fill="white"/>
</svg>
