<svg width="100" height="100" viewBox="0 0 100 100" fill="none" xmlns="http://www.w3.org/2000/svg">
<path d="M87.375 25.8401L53 7.0315C52.0815 6.52401 51.0493 6.25781 50 6.25781C48.9507 6.25781 47.9185 6.52401 47 7.0315L12.625 25.8479C11.6433 26.385 10.8238 27.1759 10.2522 28.1379C9.68047 29.0998 9.37754 30.1976 9.375 31.3167V68.676C9.37754 69.7951 9.68047 70.8929 10.2522 71.8549C10.8238 72.8168 11.6433 73.6077 12.625 74.1448L47 92.9612C47.9185 93.4687 48.9507 93.7349 50 93.7349C51.0493 93.7349 52.0815 93.4687 53 92.9612L87.375 74.1448C88.3567 73.6077 89.1762 72.8168 89.7478 71.8549C90.3195 70.8929 90.6225 69.7951 90.625 68.676V31.3206C90.6246 30.1996 90.3226 29.0993 89.7508 28.1351C89.179 27.1709 88.3584 26.3782 87.375 25.8401ZM50 12.5003L81.3828 29.6878L69.7539 36.0549L38.3672 18.8674L50 12.5003ZM50 46.8753L18.6172 29.6878L31.8594 22.4378L63.2422 39.6253L50 46.8753ZM15.625 35.1565L46.875 52.2581V85.7698L15.625 68.68V35.1565ZM84.375 68.6643L53.125 85.7698V52.2737L65.625 45.4338V59.3753C65.625 60.2041 65.9542 60.9989 66.5403 61.585C67.1263 62.171 67.9212 62.5003 68.75 62.5003C69.5788 62.5003 70.3737 62.171 70.9597 61.585C71.5458 60.9989 71.875 60.2041 71.875 59.3753V42.012L84.375 35.1565V68.6604V68.6643Z" fill="white"/>
</svg>
