<svg width="100" height="100" viewBox="0 0 100 100" fill="none" xmlns="http://www.w3.org/2000/svg">
<path d="M40.625 65.6241C40.625 66.4529 40.2958 67.2477 39.7097 67.8338C39.1237 68.4198 38.3288 68.7491 37.5 68.7491H25C24.1712 68.7491 23.3763 68.4198 22.7903 67.8338C22.2042 67.2477 21.875 66.4529 21.875 65.6241C21.875 64.7953 22.2042 64.0004 22.7903 63.4144C23.3763 62.8283 24.1712 62.4991 25 62.4991H37.5C38.3288 62.4991 39.1237 62.8283 39.7097 63.4144C40.2958 64.0004 40.625 64.7953 40.625 65.6241ZM37.5 49.9991H25C24.1712 49.9991 23.3763 50.3283 22.7903 50.9144C22.2042 51.5004 21.875 52.2953 21.875 53.1241C21.875 53.9529 22.2042 54.7477 22.7903 55.3338C23.3763 55.9198 24.1712 56.2491 25 56.2491H37.5C38.3288 56.2491 39.1237 55.9198 39.7097 55.3338C40.2958 54.7477 40.625 53.9529 40.625 53.1241C40.625 52.2953 40.2958 51.5004 39.7097 50.9144C39.1237 50.3283 38.3288 49.9991 37.5 49.9991ZM37.5 37.4991H25C24.1712 37.4991 23.3763 37.8283 22.7903 38.4144C22.2042 39.0004 21.875 39.7953 21.875 40.6241C21.875 41.4529 22.2042 42.2477 22.7903 42.8338C23.3763 43.4198 24.1712 43.7491 25 43.7491H37.5C38.3288 43.7491 39.1237 43.4198 39.7097 42.8338C40.2958 42.2477 40.625 41.4529 40.625 40.6241C40.625 39.7953 40.2958 39.0004 39.7097 38.4144C39.1237 37.8283 38.3288 37.4991 37.5 37.4991ZM90.625 31.2491V74.9991C90.625 76.6567 89.9665 78.2464 88.7944 79.4185C87.6223 80.5906 86.0326 81.2491 84.375 81.2491H15.625C13.9674 81.2491 12.3777 80.5906 11.2056 79.4185C10.0335 78.2464 9.375 76.6567 9.375 74.9991V28.1241C9.37519 27.4523 9.59188 26.7984 9.99295 26.2594C10.394 25.7204 10.9581 25.325 11.6016 25.1319L74.1016 6.38189C74.4948 6.26391 74.9073 6.22452 75.3158 6.26599C75.7242 6.30745 76.1204 6.42896 76.4819 6.62356C76.8433 6.81817 77.1629 7.08206 77.4224 7.40017C77.6819 7.71829 77.8762 8.0844 77.9941 8.47759C78.1121 8.87079 78.1515 9.28337 78.11 9.69179C78.0686 10.1002 77.9471 10.4965 77.7525 10.8579C77.5579 11.2194 77.294 11.539 76.9759 11.7984C76.6577 12.0579 76.2916 12.2522 75.8984 12.3702L33.793 24.9991H84.375C86.0326 24.9991 87.6223 25.6576 88.7944 26.8297C89.9665 28.0018 90.625 29.5915 90.625 31.2491ZM84.375 74.9991V31.2491H15.625V74.9991H84.375ZM78.125 53.1241C78.125 56.2144 77.2086 59.2353 75.4917 61.8049C73.7748 64.3744 71.3345 66.3771 68.4794 67.5597C65.6243 68.7423 62.4827 69.0517 59.4517 68.4488C56.4208 67.846 53.6367 66.3578 51.4515 64.1726C49.2663 61.9874 47.7781 59.2033 47.1752 56.1724C46.5723 53.1414 46.8818 49.9997 48.0644 47.1447C49.247 44.2896 51.2497 41.8493 53.8192 40.1324C56.3887 38.4155 59.4097 37.4991 62.5 37.4991C66.644 37.4991 70.6183 39.1453 73.5485 42.0755C76.4788 45.0058 78.125 48.9801 78.125 53.1241ZM71.875 53.1241C71.875 51.2699 71.3252 49.4573 70.295 47.9156C69.2649 46.3739 67.8007 45.1723 66.0877 44.4627C64.3746 43.7531 62.4896 43.5675 60.671 43.9292C58.8525 44.291 57.182 45.1838 55.8709 46.495C54.5598 47.8061 53.6669 49.4765 53.3051 51.2951C52.9434 53.1137 53.1291 54.9987 53.8386 56.7117C54.5482 58.4248 55.7498 59.889 57.2915 60.9191C58.8332 61.9492 60.6458 62.4991 62.5 62.4991C64.9864 62.4991 67.371 61.5114 69.1291 59.7532C70.8873 57.995 71.875 55.6105 71.875 53.1241Z" fill="white"/>
</svg>
