<svg width="100" height="100" viewBox="0 0 100 100" fill="none" xmlns="http://www.w3.org/2000/svg">
<path d="M92.1871 27.1094C91.5944 26.4441 90.8674 25.9122 90.054 25.5486C89.2406 25.1849 88.3593 24.998 87.4683 25H68.7496C68.7496 20.0272 66.7742 15.2581 63.2579 11.7417C59.7415 8.22544 54.9724 6.25 49.9996 6.25C45.0268 6.25 40.2577 8.22544 36.7413 11.7417C33.225 15.2581 31.2496 20.0272 31.2496 25H12.5309C11.6452 25.0024 10.7699 25.1915 9.96221 25.5549C9.15452 25.9184 8.43253 26.4481 7.84335 27.1094C7.25909 27.7682 6.82065 28.5431 6.55676 29.3832C6.29287 30.2234 6.2095 31.1098 6.3121 31.9844L11.8824 78.8594C12.0631 80.3867 12.8005 81.7937 13.9536 82.8113C15.1067 83.8289 16.5945 84.3857 18.1324 84.375H81.9019C83.4398 84.3857 84.9276 83.8289 86.0807 82.8113C87.2338 81.7937 87.9713 80.3867 88.1519 78.8594L93.7222 31.9844C93.8243 31.1095 93.7403 30.2229 93.4758 29.3828C93.2112 28.5426 92.772 27.7679 92.1871 27.1094ZM49.9996 12.5C53.3148 12.5 56.4942 13.817 58.8384 16.1612C61.1826 18.5054 62.4996 21.6848 62.4996 25H37.4996C37.4996 21.6848 38.8166 18.5054 41.1608 16.1612C43.505 13.817 46.6844 12.5 49.9996 12.5ZM81.9371 78.125C81.9257 78.1292 81.9133 78.1292 81.9019 78.125H18.066L12.5309 31.25H31.2496V40.625C31.2496 41.4538 31.5788 42.2487 32.1649 42.8347C32.7509 43.4208 33.5458 43.75 34.3746 43.75C35.2034 43.75 35.9983 43.4208 36.5843 42.8347C37.1704 42.2487 37.4996 41.4538 37.4996 40.625V31.25H62.4996V40.625C62.4996 41.4538 62.8288 42.2487 63.4149 42.8347C64.0009 43.4208 64.7958 43.75 65.6246 43.75C66.4534 43.75 67.2483 43.4208 67.8343 42.8347C68.4204 42.2487 68.7496 41.4538 68.7496 40.625V31.25H87.4996L81.9371 78.125Z" fill="white"/>
</svg>
