<svg width="100" height="100" viewBox="0 0 100 100" fill="none" xmlns="http://www.w3.org/2000/svg">
<path d="M93.7495 49.465C93.0361 41.285 90.0439 33.4687 85.1126 26.9033C80.1813 20.3379 73.5083 15.2863 65.851 12.3218C58.1937 9.3573 49.8587 8.59866 41.792 10.132C33.7253 11.6653 26.25 15.4291 20.2144 20.9963C12.1568 28.3987 7.17866 38.5613 6.26905 49.465C6.19488 50.328 6.3009 51.197 6.58038 52.0168C6.85985 52.8367 7.30668 53.5895 7.89251 54.2274C8.47835 54.8654 9.19039 55.3747 9.98348 55.7229C10.7766 56.0711 11.6334 56.2507 12.4995 56.2502H46.8745V78.1252C46.8745 81.4404 48.1915 84.6198 50.5357 86.964C52.8799 89.3082 56.0593 90.6252 59.3745 90.6252C62.6897 90.6252 65.8691 89.3082 68.2133 86.964C70.5575 84.6198 71.8745 81.4404 71.8745 78.1252C71.8745 77.2964 71.5453 76.5015 70.9592 75.9155C70.3732 75.3294 69.5783 75.0002 68.7495 75.0002C67.9207 75.0002 67.1259 75.3294 66.5398 75.9155C65.9538 76.5015 65.6245 77.2964 65.6245 78.1252C65.6245 79.7828 64.966 81.3725 63.7939 82.5446C62.6218 83.7167 61.0321 84.3752 59.3745 84.3752C57.7169 84.3752 56.1272 83.7167 54.9551 82.5446C53.783 81.3725 53.1245 79.7828 53.1245 78.1252V56.2502H87.4995C88.3673 56.2534 89.2263 56.0758 90.0217 55.7288C90.8171 55.3818 91.5315 54.8729 92.1195 54.2346C92.7074 53.5964 93.156 52.8426 93.4366 52.0215C93.7173 51.2003 93.8238 50.3297 93.7495 49.465ZM12.4995 50.0002C13.1921 41.9501 16.4622 34.338 21.8244 28.2939C27.1866 22.2499 34.3549 18.0961 42.2651 16.4494C37.687 22.6564 31.9722 33.6369 31.3159 50.0002H12.4995ZM37.5581 50.0002C38.1011 37.9807 41.6714 29.3713 44.7065 24.1252C46.2031 21.5192 47.9778 19.083 49.9995 16.8596C52.0174 19.0834 53.7882 21.5195 55.2808 24.1252C60.4683 33.0861 62.1089 42.6877 62.4292 50.0002H37.5581ZM68.6714 50.0002C68.0151 33.6369 62.3003 22.6564 57.7339 16.4299C65.6493 18.073 72.8226 22.2282 78.1859 28.277C83.5492 34.3259 86.8158 41.945 87.4995 50.0002H68.6714Z" fill="white"/>
</svg>
