<svg width="100" height="100" viewBox="0 0 100 100" fill="none" xmlns="http://www.w3.org/2000/svg">
<path d="M65.625 40.6246C65.625 37.5343 64.7086 34.5133 62.9917 31.9438C61.2748 29.3743 58.8345 27.3716 55.9794 26.189C53.1243 25.0064 49.9827 24.6969 46.9517 25.2998C43.9208 25.9027 41.1367 27.3909 38.9515 29.5761C36.7663 31.7613 35.2781 34.5454 34.6752 37.5763C34.0723 40.6073 34.3818 43.7489 35.5644 46.604C36.747 49.4591 38.7497 51.8994 41.3192 53.6163C43.8887 55.3332 46.9097 56.2496 50 56.2496C54.144 56.2496 58.1183 54.6034 61.0485 51.6731C63.9788 48.7429 65.625 44.7686 65.625 40.6246ZM40.625 40.6246C40.625 38.7704 41.1748 36.9578 42.205 35.4161C43.2351 33.8744 44.6993 32.6728 46.4123 31.9632C48.1254 31.2537 50.0104 31.068 51.829 31.4297C53.6475 31.7915 55.318 32.6844 56.6291 33.9955C57.9402 35.3066 58.8331 36.9771 59.1949 38.7956C59.5566 40.6142 59.3709 42.4992 58.6614 44.2123C57.9518 45.9253 56.7502 47.3895 55.2085 48.4196C53.6668 49.4498 51.8542 49.9996 50 49.9996C47.5136 49.9996 45.129 49.0119 43.3709 47.2537C41.6127 45.4956 40.625 43.111 40.625 40.6246ZM87.5 78.1246H53.125V71.7184C61.102 70.9166 68.4657 67.0798 73.6933 61.0013C78.9208 54.9228 81.6122 47.0677 81.2108 39.0605C80.8095 31.0534 77.346 23.5068 71.5369 17.9815C65.7277 12.4563 58.0172 9.375 50 9.375C41.9828 9.375 34.2723 12.4563 28.4631 17.9815C22.654 23.5068 19.1905 31.0534 18.7892 39.0605C18.3878 47.0677 21.0792 54.9228 26.3067 61.0013C31.5343 67.0798 38.898 70.9166 46.875 71.7184V78.1246H12.5C11.6712 78.1246 10.8763 78.4538 10.2903 79.0399C9.70424 79.6259 9.375 80.4208 9.375 81.2496C9.375 82.0784 9.70424 82.8733 10.2903 83.4593C10.8763 84.0454 11.6712 84.3746 12.5 84.3746H87.5C88.3288 84.3746 89.1237 84.0454 89.7097 83.4593C90.2958 82.8733 90.625 82.0784 90.625 81.2496C90.625 80.4208 90.2958 79.6259 89.7097 79.0399C89.1237 78.4538 88.3288 78.1246 87.5 78.1246ZM25 40.6246C25 35.6801 26.4662 30.8466 29.2133 26.7353C31.9603 22.6241 35.8648 19.4198 40.4329 17.5276C45.0011 15.6354 50.0277 15.1403 54.8773 16.105C59.7268 17.0696 64.1814 19.4506 67.6777 22.9469C71.174 26.4433 73.555 30.8978 74.5196 35.7473C75.4843 40.5969 74.9892 45.6235 73.097 50.1917C71.2048 54.7598 68.0005 58.6643 63.8893 61.4113C59.778 64.1584 54.9445 65.6246 50 65.6246C43.3718 65.6174 37.0172 62.9811 32.3303 58.2943C27.6435 53.6074 25.0072 47.2528 25 40.6246Z" fill="white"/>
</svg>
